<?xml version="1.0" encoding="UTF-8"?>
<!DOCTYPE svg PUBLIC "-//W3C//DTD SVG 1.1//EN" "http://www.w3.org/Graphics/SVG/1.1/DTD/svg11.dtd">
<svg xmlns="http://www.w3.org/2000/svg" version="1.1" width="564px" height="564px" style="shape-rendering:geometricPrecision; text-rendering:geometricPrecision; image-rendering:optimizeQuality; fill-rule:evenodd; clip-rule:evenodd" xmlns:xlink="http://www.w3.org/1999/xlink">
<g><path style="opacity:1" fill="#000000" d="M -0.5,-0.5 C 187.5,-0.5 375.5,-0.5 563.5,-0.5C 563.5,187.5 563.5,375.5 563.5,563.5C 375.5,563.5 187.5,563.5 -0.5,563.5C -0.5,375.5 -0.5,187.5 -0.5,-0.5 Z"/></g>
<g><path style="opacity:1" fill="#140001" d="M 349.5,223.5 C 346.14,221.659 343.14,219.159 340.5,216C 338.846,215.392 337.179,214.892 335.5,214.5C 335.5,213.5 335.5,212.5 335.5,211.5C 333.5,211.167 331.5,210.833 329.5,210.5C 329.5,209.5 329.5,208.5 329.5,207.5C 328.167,207.5 326.833,207.5 325.5,207.5C 325.489,205.983 324.823,204.816 323.5,204C 316.979,200.775 310.312,198.275 303.5,196.5C 302.737,195.732 301.737,195.232 300.5,195C 286.136,194.177 271.803,194.511 257.5,196C 256.027,196.71 255.36,197.876 255.5,199.5C 249.956,200.242 244.623,201.575 239.5,203.5C 239.5,204.833 239.5,206.167 239.5,207.5C 238.5,207.5 237.5,207.5 236.5,207.5C 233.731,208.437 231.064,209.604 228.5,211C 227.349,213.2 225.682,214.7 223.5,215.5C 223.729,213.567 224.562,211.9 226,210.5C 228.867,208.676 231.367,206.51 233.5,204C 236.657,202.422 239.991,201.422 243.5,201C 245.267,198.61 247.6,196.943 250.5,196C 270.115,190.655 289.781,190.321 309.5,195C 316.995,198.371 324.328,202.038 331.5,206C 332.784,206.684 333.951,206.517 335,205.5C 335.167,208.333 336.667,209.833 339.5,210C 341.667,214.167 344.833,217.333 349,219.5C 349.49,220.793 349.657,222.127 349.5,223.5 Z"/></g>
<g><path style="opacity:1" fill="#2e0202" d="M 303.5,196.5 C 294.178,195.65 284.845,195.483 275.5,196C 268.548,196.064 261.882,197.231 255.5,199.5C 255.36,197.876 256.027,196.71 257.5,196C 271.803,194.511 286.136,194.177 300.5,195C 301.737,195.232 302.737,195.732 303.5,196.5 Z"/></g>
<g><path style="opacity:1" fill="#430302" d="M 303.5,196.5 C 310.312,198.275 316.979,200.775 323.5,204C 324.823,204.816 325.489,205.983 325.5,207.5C 320.662,205.826 315.996,203.659 311.5,201C 299.2,197.577 286.867,196.744 274.5,198.5C 265.506,201.436 256.173,203.269 246.5,204C 244.933,206.741 242.599,207.908 239.5,207.5C 239.5,206.167 239.5,204.833 239.5,203.5C 244.623,201.575 249.956,200.242 255.5,199.5C 261.882,197.231 268.548,196.064 275.5,196C 284.845,195.483 294.178,195.65 303.5,196.5 Z"/></g>
<g><path style="opacity:1" fill="#560102" d="M 274.5,198.5 C 286.867,196.744 299.2,197.577 311.5,201C 315.996,203.659 320.662,205.826 325.5,207.5C 326.833,207.5 328.167,207.5 329.5,207.5C 329.5,208.5 329.5,209.5 329.5,210.5C 331.5,210.833 333.5,211.167 335.5,211.5C 335.5,212.5 335.5,213.5 335.5,214.5C 338.093,216.908 340.927,219.242 344,221.5C 344.438,226.431 346.938,229.765 351.5,231.5C 355.015,236.011 358.515,240.678 362,245.5C 363.15,248.768 363.984,252.101 364.5,255.5C 365.5,255.5 366.5,255.5 367.5,255.5C 367.916,260.548 370.083,264.881 374,268.5C 374.483,269.448 374.649,270.448 374.5,271.5C 371.914,268.086 368.748,265.086 365,262.5C 362.092,254.61 358.758,246.943 355,239.5C 351.973,235.806 348.64,232.473 345,229.5C 343.024,226.895 341.857,224.228 341.5,221.5C 332.738,216.589 324.072,211.422 315.5,206C 313.091,204.293 310.425,203.46 307.5,203.5C 307.389,202.883 307.056,202.383 306.5,202C 301.9,202.011 297.567,201.011 293.5,199C 287.175,198.5 280.842,198.334 274.5,198.5 Z"/></g>
<g><path style="opacity:1" fill="#6a0103" d="M 274.5,198.5 C 280.842,198.334 287.175,198.5 293.5,199C 297.567,201.011 301.9,202.011 306.5,202C 307.056,202.383 307.389,202.883 307.5,203.5C 300.052,203.602 292.719,202.935 285.5,201.5C 275.433,202.021 265.433,203.021 255.5,204.5C 255.5,205.5 255.5,206.5 255.5,207.5C 250.371,209.313 245.038,210.313 239.5,210.5C 239.5,209.5 239.5,208.5 239.5,207.5C 242.599,207.908 244.933,206.741 246.5,204C 256.173,203.269 265.506,201.436 274.5,198.5 Z"/></g>
<g><path style="opacity:1" fill="#910303" d="M 307.5,203.5 C 312.211,209.03 318.211,212.197 325.5,213C 327.401,217.406 330.735,219.573 335.5,219.5C 335.343,220.873 335.51,222.207 336,223.5C 340.325,227.456 344.659,231.456 349,235.5C 349.112,238.447 350.612,239.78 353.5,239.5C 355.843,246.047 358.009,252.714 360,259.5C 363.731,263.723 367.231,268.056 370.5,272.5C 368.94,272.481 367.44,272.148 366,271.5C 364.317,269.649 362.484,267.983 360.5,266.5C 353.126,245.217 340.126,228.384 321.5,216C 314.321,212.664 306.988,209.831 299.5,207.5C 298.571,206.685 297.571,205.852 296.5,205C 288.833,204.333 281.167,204.333 273.5,205C 269.867,205.149 266.534,205.982 263.5,207.5C 260.833,207.5 258.167,207.5 255.5,207.5C 255.5,206.5 255.5,205.5 255.5,204.5C 265.433,203.021 275.433,202.021 285.5,201.5C 292.719,202.935 300.052,203.602 307.5,203.5 Z"/></g>
<g><path style="opacity:1" fill="#aa0f07" d="M 299.5,207.5 C 291.359,206.248 283.359,206.248 275.5,207.5C 274.167,207.5 272.833,207.5 271.5,207.5C 268.833,207.5 266.167,207.5 263.5,207.5C 266.534,205.982 269.867,205.149 273.5,205C 281.167,204.333 288.833,204.333 296.5,205C 297.571,205.852 298.571,206.685 299.5,207.5 Z"/></g>
<g><path style="opacity:1" fill="#300301" d="M 236.5,207.5 C 231.554,210.652 227.221,214.318 223.5,218.5C 223.5,217.5 223.5,216.5 223.5,215.5C 225.682,214.7 227.349,213.2 228.5,211C 231.064,209.604 233.731,208.437 236.5,207.5 Z"/></g>
<g><path style="opacity:1" fill="#a30a02" d="M 255.5,207.5 C 258.167,207.5 260.833,207.5 263.5,207.5C 263.423,208.75 262.756,209.583 261.5,210C 256.92,210.711 252.587,212.044 248.5,214C 243.07,218.293 237.404,222.126 231.5,225.5C 230.833,225.833 230.167,226.167 229.5,226.5C 229.5,225.5 229.5,224.5 229.5,223.5C 233.372,221.641 236.705,218.974 239.5,215.5C 242.144,214.604 244.81,213.771 247.5,213C 249.424,211.095 251.757,209.928 254.5,209.5C 255.298,209.043 255.631,208.376 255.5,207.5 Z"/></g>
<g><path style="opacity:1" fill="#e3450d" d="M 271.5,207.5 C 272.833,207.5 274.167,207.5 275.5,207.5C 290.209,206.354 303.875,209.354 316.5,216.5C 315.352,217.164 314.019,217.331 312.5,217C 313.328,217.915 314.328,218.581 315.5,219C 315,219.167 314.5,219.333 314,219.5C 310.057,217.241 305.891,215.408 301.5,214C 302.5,213.667 303.5,213.333 304.5,213C 302.553,212.009 300.553,211.675 298.5,212C 300.595,212.556 300.762,213.056 299,213.5C 296.547,212.507 294.047,212.34 291.5,213C 297.154,213.793 302.487,215.459 307.5,218C 306.391,218.638 305.225,219.138 304,219.5C 302.535,218.67 301.035,218.504 299.5,219C 300.416,219.278 301.082,219.778 301.5,220.5C 293.189,218.239 284.856,218.072 276.5,220C 278.5,220.333 280.5,220.667 282.5,221C 277.57,222.241 272.57,223.075 267.5,223.5C 267.083,222.876 266.416,222.543 265.5,222.5C 262.71,223.597 259.877,224.597 257,225.5C 255.699,225.361 254.866,224.695 254.5,223.5C 254.833,223.5 255.167,223.5 255.5,223.5C 259.005,224.109 261.672,222.942 263.5,220C 272.078,218.244 280.745,217.244 289.5,217C 285.167,216.667 280.833,216.333 276.5,216C 283.189,215.622 289.856,215.622 296.5,216C 291.896,214.939 287.229,214.273 282.5,214C 283.5,213.667 284.5,213.333 285.5,213C 280.845,212.501 276.179,212.334 271.5,212.5C 271.5,211.167 271.5,209.833 271.5,208.5C 271.5,208.167 271.5,207.833 271.5,207.5 Z"/></g>
<g><path style="opacity:1" fill="#5c0103" d="M 239.5,210.5 C 236.849,213.091 234.182,215.757 231.5,218.5C 228.075,219.199 225.408,220.866 223.5,223.5C 223.5,222.167 223.5,220.833 223.5,219.5C 227.131,218.392 230.131,216.226 232.5,213C 234.765,211.882 237.099,211.049 239.5,210.5 Z"/></g>
<g><path style="opacity:1" fill="#da360c" d="M 271.5,208.5 C 271.5,209.833 271.5,211.167 271.5,212.5C 276.179,212.334 280.845,212.501 285.5,213C 284.5,213.333 283.5,213.667 282.5,214C 287.229,214.273 291.896,214.939 296.5,216C 289.856,215.622 283.189,215.622 276.5,216C 280.833,216.333 285.167,216.667 289.5,217C 280.745,217.244 272.078,218.244 263.5,220C 261.672,222.942 259.005,224.109 255.5,223.5C 254.737,222.732 253.737,222.232 252.5,222C 257.719,220.58 257.719,219.413 252.5,218.5C 250.729,219.035 250.396,219.869 251.5,221C 249.401,223.57 247.068,223.904 244.5,222C 247.502,219.497 250.835,217.497 254.5,216C 253.833,215.667 253.167,215.333 252.5,215C 258.644,212.119 264.978,209.952 271.5,208.5 Z"/></g>
<g><path style="opacity:1" fill="#f05f0e" d="M 301.5,220.5 C 306.68,222.786 311.68,225.452 316.5,228.5C 315.883,228.611 315.383,228.944 315,229.5C 312.262,228.518 309.428,227.852 306.5,227.5C 305.609,226.89 304.609,226.557 303.5,226.5C 294.252,222.346 284.586,221.512 274.5,224C 278.871,224.172 283.204,224.672 287.5,225.5C 282.081,226.764 276.747,227.764 271.5,228.5C 266.954,228.84 262.454,229.507 258,230.5C 256.862,230.011 255.695,229.678 254.5,229.5C 258.211,226.364 262.545,224.364 267.5,223.5C 272.57,223.075 277.57,222.241 282.5,221C 280.5,220.667 278.5,220.333 276.5,220C 284.856,218.072 293.189,218.239 301.5,220.5 Z"/></g>
<g><path style="opacity:1" fill="#3c0303" d="M 236.5,207.5 C 237.5,207.5 238.5,207.5 239.5,207.5C 239.5,208.5 239.5,209.5 239.5,210.5C 237.099,211.049 234.765,211.882 232.5,213C 230.131,216.226 227.131,218.392 223.5,219.5C 223.5,220.833 223.5,222.167 223.5,223.5C 222.127,223.343 220.793,223.51 219.5,224C 216.954,227.59 214.787,231.423 213,235.5C 211.008,236.665 209.175,237.998 207.5,239.5C 207.5,238.5 207.5,237.5 207.5,236.5C 207.5,234.833 207.5,233.167 207.5,231.5C 211.606,228.563 215.273,225.063 218.5,221C 220.078,219.906 221.745,219.072 223.5,218.5C 227.221,214.318 231.554,210.652 236.5,207.5 Z"/></g>
<g><path style="opacity:1" fill="#e1430e" d="M 319.5,218.5 C 324.258,220.384 328.591,223.05 332.5,226.5C 337.886,232.713 343.053,239.046 348,245.5C 352.085,253.951 356.251,262.284 360.5,270.5C 357.203,271.142 356.869,272.309 359.5,274C 358.906,274.464 358.239,274.631 357.5,274.5C 352.243,264.575 347.076,254.575 342,244.5C 338.406,239.649 334.572,234.983 330.5,230.5C 326.012,226.757 321.346,223.257 316.5,220C 317.449,219.383 318.282,219.549 319,220.5C 319.464,219.906 319.631,219.239 319.5,218.5 Z"/></g>
<g><path style="opacity:1" fill="#e85010" d="M 316.5,216.5 C 318.027,216.427 319.027,217.094 319.5,218.5C 319.631,219.239 319.464,219.906 319,220.5C 318.282,219.549 317.449,219.383 316.5,220C 321.346,223.257 326.012,226.757 330.5,230.5C 334.572,234.983 338.406,239.649 342,244.5C 347.076,254.575 352.243,264.575 357.5,274.5C 355.983,274.489 354.816,273.823 354,272.5C 351.063,268.231 349.063,263.564 348,258.5C 347.667,259.167 347.333,259.833 347,260.5C 346.333,259.167 345.667,257.833 345,256.5C 344.333,257.5 344.333,258.5 345,259.5C 347.174,264.272 349.34,268.938 351.5,273.5C 349.97,272.933 348.47,272.267 347,271.5C 342.201,253.191 332.034,238.858 316.5,228.5C 311.68,225.452 306.68,222.786 301.5,220.5C 301.082,219.778 300.416,219.278 299.5,219C 301.035,218.504 302.535,218.67 304,219.5C 305.225,219.138 306.391,218.638 307.5,218C 302.487,215.459 297.154,213.793 291.5,213C 294.047,212.34 296.547,212.507 299,213.5C 300.762,213.056 300.595,212.556 298.5,212C 300.553,211.675 302.553,212.009 304.5,213C 303.5,213.333 302.5,213.667 301.5,214C 305.891,215.408 310.057,217.241 314,219.5C 314.5,219.333 315,219.167 315.5,219C 314.328,218.581 313.328,217.915 312.5,217C 314.019,217.331 315.352,217.164 316.5,216.5 Z"/></g>
<g><path style="opacity:1" fill="#760205" d="M 307.5,203.5 C 310.425,203.46 313.091,204.293 315.5,206C 324.072,211.422 332.738,216.589 341.5,221.5C 341.857,224.228 343.024,226.895 345,229.5C 348.64,232.473 351.973,235.806 355,239.5C 358.758,246.943 362.092,254.61 365,262.5C 368.748,265.086 371.914,268.086 374.5,271.5C 377.43,273.135 380.43,274.468 383.5,275.5C 378.946,275.386 374.613,274.386 370.5,272.5C 367.231,268.056 363.731,263.723 360,259.5C 358.009,252.714 355.843,246.047 353.5,239.5C 350.612,239.78 349.112,238.447 349,235.5C 344.659,231.456 340.325,227.456 336,223.5C 335.51,222.207 335.343,220.873 335.5,219.5C 330.735,219.573 327.401,217.406 325.5,213C 318.211,212.197 312.211,209.03 307.5,203.5 Z"/></g>
<g><path style="opacity:1" fill="#150101" d="M 223.5,215.5 C 223.5,216.5 223.5,217.5 223.5,218.5C 221.745,219.072 220.078,219.906 218.5,221C 215.273,225.063 211.606,228.563 207.5,231.5C 207.343,230.127 207.51,228.793 208,227.5C 209.512,226.743 210.846,225.743 212,224.5C 213.824,218.776 217.658,215.776 223.5,215.5 Z"/></g>
<g><path style="opacity:1" fill="#430204" d="M 335.5,214.5 C 337.179,214.892 338.846,215.392 340.5,216C 343.14,219.159 346.14,221.659 349.5,223.5C 350.72,225.282 351.386,227.282 351.5,229.5C 351.5,230.167 351.5,230.833 351.5,231.5C 346.938,229.765 344.438,226.431 344,221.5C 340.927,219.242 338.093,216.908 335.5,214.5 Z"/></g>
<g><path style="opacity:1" fill="#f26911" d="M 303.5,226.5 C 301.436,226.687 299.436,227.187 297.5,228C 299.156,230.364 301.156,232.197 303.5,233.5C 294.156,230.141 284.489,228.807 274.5,229.5C 273.209,229.737 272.209,229.404 271.5,228.5C 276.747,227.764 282.081,226.764 287.5,225.5C 283.204,224.672 278.871,224.172 274.5,224C 284.586,221.512 294.252,222.346 303.5,226.5 Z"/></g>
<g><path style="opacity:1" fill="#ef6e10" d="M 306.5,227.5 C 309.428,227.852 312.262,228.518 315,229.5C 315.383,228.944 315.883,228.611 316.5,228.5C 332.034,238.858 342.201,253.191 347,271.5C 348.47,272.267 349.97,272.933 351.5,273.5C 351.5,274.167 351.5,274.833 351.5,275.5C 349.265,275.205 347.265,275.539 345.5,276.5C 344.026,275.564 343.026,274.23 342.5,272.5C 339.179,261.524 334.012,251.524 327,242.5C 325.223,240.21 323.056,238.543 320.5,237.5C 316.538,233.185 311.871,229.852 306.5,227.5 Z"/></g>
<g><path style="opacity:1" fill="#5b0303" d="M 223.5,223.5 C 222.209,225.619 220.375,227.285 218,228.5C 216.124,233.292 213.957,237.959 211.5,242.5C 210.14,243.18 208.807,243.847 207.5,244.5C 207.5,242.833 207.5,241.167 207.5,239.5C 209.175,237.998 211.008,236.665 213,235.5C 214.787,231.423 216.954,227.59 219.5,224C 220.793,223.51 222.127,223.343 223.5,223.5 Z"/></g>
<g><path style="opacity:1" fill="#c7240b" d="M 263.5,207.5 C 266.167,207.5 268.833,207.5 271.5,207.5C 271.5,207.833 271.5,208.167 271.5,208.5C 264.978,209.952 258.644,212.119 252.5,215C 253.167,215.333 253.833,215.667 254.5,216C 250.835,217.497 247.502,219.497 244.5,222C 247.068,223.904 249.401,223.57 251.5,221C 250.396,219.869 250.729,219.035 252.5,218.5C 257.719,219.413 257.719,220.58 252.5,222C 253.737,222.232 254.737,222.732 255.5,223.5C 255.167,223.5 254.833,223.5 254.5,223.5C 249.443,226.113 244.61,229.113 240,232.5C 239.667,234.167 239.333,235.833 239,237.5C 235.238,243.285 231.404,249.118 227.5,255C 228.833,255.667 230.167,255.667 231.5,255C 233.35,250.421 236.016,246.588 239.5,243.5C 243.466,240.999 247.466,238.499 251.5,236C 252.793,235.51 254.127,235.343 255.5,235.5C 248.513,240.653 242.346,246.653 237,253.5C 236.667,253.167 236.333,252.833 236,252.5C 235.56,254.866 235.06,257.199 234.5,259.5C 232.883,261.121 231.716,263.121 231,265.5C 229.421,267.041 227.587,268.208 225.5,269C 224.776,271.67 223.109,273.17 220.5,273.5C 221.727,268.539 223.394,263.706 225.5,259C 223.822,257.068 223.322,254.902 224,252.5C 226.195,247.497 229.695,242.663 234.5,238C 233.833,237.667 233.167,237.333 232.5,237C 234.329,235.887 235.163,234.387 235,232.5C 233.667,233.833 232.333,235.167 231,236.5C 230.667,236.167 230.333,235.833 230,235.5C 228.351,237.65 226.518,239.65 224.5,241.5C 223.534,239.604 223.201,237.604 223.5,235.5C 225.201,235.966 226.701,235.966 228,235.5C 228.47,231.885 229.637,228.551 231.5,225.5C 237.404,222.126 243.07,218.293 248.5,214C 252.587,212.044 256.92,210.711 261.5,210C 262.756,209.583 263.423,208.75 263.5,207.5 Z"/></g>
<g><path style="opacity:1" fill="#d44f37" d="M 274.5,230.5 C 284.593,229.904 294.26,231.571 303.5,235.5C 303.5,235.833 303.5,236.167 303.5,236.5C 302.041,236.567 300.708,236.234 299.5,235.5C 289.378,232.343 279.044,231.676 268.5,233.5C 267.833,233.5 267.167,233.5 266.5,233.5C 269.087,232.251 271.754,231.251 274.5,230.5 Z"/></g>
<g><path style="opacity:1" fill="#6a0506" d="M 299.5,235.5 C 298.529,236.962 298.862,238.295 300.5,239.5C 299.833,239.5 299.167,239.5 298.5,239.5C 298.5,238.833 298.167,238.5 297.5,238.5C 296.71,237.206 295.71,236.039 294.5,235C 285.84,234.5 277.173,234.334 268.5,234.5C 268.5,234.167 268.5,233.833 268.5,233.5C 279.044,231.676 289.378,232.343 299.5,235.5 Z"/></g>
<g><path style="opacity:1" fill="#750204" d="M 255.5,207.5 C 255.631,208.376 255.298,209.043 254.5,209.5C 251.757,209.928 249.424,211.095 247.5,213C 244.81,213.771 242.144,214.604 239.5,215.5C 236.705,218.974 233.372,221.641 229.5,223.5C 227.516,226.632 224.683,228.965 221,230.5C 218.474,233.167 216.641,236.167 215.5,239.5C 213.177,244.791 210.843,250.124 208.5,255.5C 207.662,255.842 207.328,256.508 207.5,257.5C 204.759,261.408 202.759,265.741 201.5,270.5C 198.924,271.282 196.924,272.782 195.5,275C 194.207,275.49 192.873,275.657 191.5,275.5C 192.531,274.751 193.698,274.085 195,273.5C 198.194,268.446 200.861,263.112 203,257.5C 203.494,255.866 203.66,254.199 203.5,252.5C 205.541,250.161 206.874,247.495 207.5,244.5C 208.807,243.847 210.14,243.18 211.5,242.5C 213.957,237.959 216.124,233.292 218,228.5C 220.375,227.285 222.209,225.619 223.5,223.5C 225.408,220.866 228.075,219.199 231.5,218.5C 234.182,215.757 236.849,213.091 239.5,210.5C 245.038,210.313 250.371,209.313 255.5,207.5 Z"/></g>
<g><path style="opacity:1" fill="#b01c07" d="M 274.5,230.5 C 271.754,231.251 269.087,232.251 266.5,233.5C 264.5,233.833 262.5,234.167 260.5,234.5C 264.556,231.374 269.223,230.041 274.5,230.5 Z"/></g>
<g><path style="opacity:1" fill="#bf3908" d="M 274.5,230.5 C 274.5,230.167 274.5,229.833 274.5,229.5C 284.489,228.807 294.156,230.141 303.5,233.5C 305.349,234.593 307.016,235.926 308.5,237.5C 306.716,237.107 305.05,236.441 303.5,235.5C 294.26,231.571 284.593,229.904 274.5,230.5 Z"/></g>
<g><path style="opacity:1" fill="#5b0a12" d="M 268.5,234.5 C 277.173,234.334 285.84,234.5 294.5,235C 295.71,236.039 296.71,237.206 297.5,238.5C 292.196,236.019 286.53,235.019 280.5,235.5C 276.833,235.667 273.167,235.833 269.5,236C 266.602,236.436 264.269,237.603 262.5,239.5C 260.539,241.312 258.206,242.312 255.5,242.5C 253.883,243.038 252.216,243.371 250.5,243.5C 255.365,238.401 261.365,235.401 268.5,234.5 Z"/></g>
<g><path style="opacity:1" fill="#c62b0d" d="M 275.5,207.5 C 283.359,206.248 291.359,206.248 299.5,207.5C 306.988,209.831 314.321,212.664 321.5,216C 340.126,228.384 353.126,245.217 360.5,266.5C 362.083,270.734 365.083,273.568 369.5,275C 373.963,276.975 378.629,277.808 383.5,277.5C 394.167,277.833 404.833,278.167 415.5,278.5C 420.64,279.488 425.974,279.821 431.5,279.5C 431.5,280.5 431.5,281.5 431.5,282.5C 420.833,282.5 410.167,282.5 399.5,282.5C 400.952,281.698 402.618,281.198 404.5,281C 397.896,279.675 391.229,278.841 384.5,278.5C 375.326,278.967 366.992,279.967 359.5,281.5C 357.337,280.531 355.004,279.698 352.5,279C 354.5,278.667 356.5,278.333 358.5,278C 355.896,277.61 353.562,276.776 351.5,275.5C 351.5,274.833 351.5,274.167 351.5,273.5C 349.34,268.938 347.174,264.272 345,259.5C 344.333,258.5 344.333,257.5 345,256.5C 345.667,257.833 346.333,259.167 347,260.5C 347.333,259.833 347.667,259.167 348,258.5C 349.063,263.564 351.063,268.231 354,272.5C 354.816,273.823 355.983,274.489 357.5,274.5C 358.239,274.631 358.906,274.464 359.5,274C 356.869,272.309 357.203,271.142 360.5,270.5C 356.251,262.284 352.085,253.951 348,245.5C 343.053,239.046 337.886,232.713 332.5,226.5C 328.591,223.05 324.258,220.384 319.5,218.5C 319.027,217.094 318.027,216.427 316.5,216.5C 303.875,209.354 290.209,206.354 275.5,207.5 Z"/></g>
<g><path style="opacity:1" fill="#880202" d="M 229.5,223.5 C 229.5,224.5 229.5,225.5 229.5,226.5C 225.773,229.647 222.273,232.981 219,236.5C 218.517,237.448 218.351,238.448 218.5,239.5C 217.5,239.5 216.5,239.5 215.5,239.5C 216.641,236.167 218.474,233.167 221,230.5C 224.683,228.965 227.516,226.632 229.5,223.5 Z"/></g>
<g><path style="opacity:1" fill="#e3430e" d="M 271.5,228.5 C 272.209,229.404 273.209,229.737 274.5,229.5C 274.5,229.833 274.5,230.167 274.5,230.5C 269.223,230.041 264.556,231.374 260.5,234.5C 258.784,234.629 257.117,234.962 255.5,235.5C 254.127,235.343 252.793,235.51 251.5,236C 247.466,238.499 243.466,240.999 239.5,243.5C 239.253,240.495 240.253,237.995 242.5,236C 246.175,233.14 250.175,230.973 254.5,229.5C 255.695,229.678 256.862,230.011 258,230.5C 262.454,229.507 266.954,228.84 271.5,228.5 Z"/></g>
<g><path style="opacity:1" fill="#360a0e" d="M 297.5,238.5 C 298.167,238.5 298.5,238.833 298.5,239.5C 286.568,235.528 274.568,235.528 262.5,239.5C 264.269,237.603 266.602,236.436 269.5,236C 273.167,235.833 276.833,235.667 280.5,235.5C 286.53,235.019 292.196,236.019 297.5,238.5 Z"/></g>
<g><path style="opacity:1" fill="#f68314" d="M 303.5,226.5 C 304.609,226.557 305.609,226.89 306.5,227.5C 311.871,229.852 316.538,233.185 320.5,237.5C 320.193,240.34 318.86,241.174 316.5,240C 318.349,241.093 320.016,242.426 321.5,244C 320.231,243.891 319.231,244.058 318.5,244.5C 315.701,241.363 312.368,239.029 308.5,237.5C 307.016,235.926 305.349,234.593 303.5,233.5C 301.156,232.197 299.156,230.364 297.5,228C 299.436,227.187 301.436,226.687 303.5,226.5 Z"/></g>
<g><path style="opacity:1" fill="#d86a3a" d="M 303.5,235.5 C 305.05,236.441 306.716,237.107 308.5,237.5C 312.368,239.029 315.701,241.363 318.5,244.5C 320.58,246.573 322.246,248.907 323.5,251.5C 323.833,252.833 324.167,254.167 324.5,255.5C 323.833,255.167 323.167,254.833 322.5,254.5C 317.449,247.115 311.116,241.115 303.5,236.5C 303.5,236.167 303.5,235.833 303.5,235.5 Z"/></g>
<g><path style="opacity:1" fill="#a3241b" d="M 266.5,233.5 C 267.167,233.5 267.833,233.5 268.5,233.5C 268.5,233.833 268.5,234.167 268.5,234.5C 261.365,235.401 255.365,238.401 250.5,243.5C 246.194,247.14 242.194,251.14 238.5,255.5C 237,256.625 235.667,257.959 234.5,259.5C 235.06,257.199 235.56,254.866 236,252.5C 236.333,252.833 236.667,253.167 237,253.5C 242.346,246.653 248.513,240.653 255.5,235.5C 257.117,234.962 258.784,234.629 260.5,234.5C 262.5,234.167 264.5,233.833 266.5,233.5 Z"/></g>
<g><path style="opacity:1" fill="#140102" d="M 207.5,231.5 C 207.5,233.167 207.5,234.833 207.5,236.5C 205.926,236.937 204.759,237.937 204,239.5C 201.761,244.077 199.095,248.411 196,252.5C 194.95,257.055 193.45,261.388 191.5,265.5C 189.193,266.763 187.859,268.763 187.5,271.5C 187.167,271.5 186.833,271.5 186.5,271.5C 182.804,272.892 179.137,274.225 175.5,275.5C 175.5,274.5 175.5,273.5 175.5,272.5C 177.167,272.5 178.833,272.5 180.5,272.5C 181.974,267.02 185.307,263.02 190.5,260.5C 191.318,257.893 191.818,255.226 192,252.5C 195.813,246.346 199.647,240.18 203.5,234C 204.356,232.405 205.689,231.572 207.5,231.5 Z"/></g>
<g><path style="opacity:1" fill="#420908" d="M 255.5,242.5 C 251.038,245.719 247.038,249.386 243.5,253.5C 242.034,254.347 241.2,255.68 241,257.5C 240.184,258.823 239.017,259.489 237.5,259.5C 238.234,258.292 238.567,256.959 238.5,255.5C 242.194,251.14 246.194,247.14 250.5,243.5C 252.216,243.371 253.883,243.038 255.5,242.5 Z"/></g>
<g><path style="opacity:1" fill="#7f1712" d="M 299.5,235.5 C 300.708,236.234 302.041,236.567 303.5,236.5C 311.116,241.115 317.449,247.115 322.5,254.5C 322.517,256.565 322.85,258.565 323.5,260.5C 322.272,259.694 321.272,258.694 320.5,257.5C 318.98,254.212 316.647,251.546 313.5,249.5C 312.483,247.089 310.816,245.422 308.5,244.5C 305.798,242.779 303.131,241.112 300.5,239.5C 298.862,238.295 298.529,236.962 299.5,235.5 Z"/></g>
<g><path style="opacity:1" fill="#360204" d="M 351.5,229.5 C 352.675,229.281 353.675,229.614 354.5,230.5C 356.634,233.829 358.968,236.829 361.5,239.5C 362.238,243.643 364.071,247.31 367,250.5C 367.494,252.134 367.66,253.801 367.5,255.5C 366.5,255.5 365.5,255.5 364.5,255.5C 363.984,252.101 363.15,248.768 362,245.5C 358.515,240.678 355.015,236.011 351.5,231.5C 351.5,230.833 351.5,230.167 351.5,229.5 Z"/></g>
<g><path style="opacity:1" fill="#f58d22" d="M 320.5,237.5 C 323.056,238.543 325.223,240.21 327,242.5C 334.012,251.524 339.179,261.524 342.5,272.5C 341.761,272.369 341.094,272.536 340.5,273C 343.466,276.156 343.133,277.323 339.5,276.5C 338.211,274.752 336.711,274.419 335,275.5C 332.995,266.494 329.162,258.494 323.5,251.5C 322.246,248.907 320.58,246.573 318.5,244.5C 319.231,244.058 320.231,243.891 321.5,244C 320.016,242.426 318.349,241.093 316.5,240C 318.86,241.174 320.193,240.34 320.5,237.5 Z"/></g>
<g><path style="opacity:1" fill="#900502" d="M 215.5,239.5 C 215.579,242.271 215.079,244.937 214,247.5C 212.36,249.579 211.194,251.912 210.5,254.5C 210.043,255.298 209.376,255.631 208.5,255.5C 210.843,250.124 213.177,244.791 215.5,239.5 Z"/></g>
<g><path style="opacity:1" fill="#d8370d" d="M 267.5,223.5 C 262.545,224.364 258.211,226.364 254.5,229.5C 250.175,230.973 246.175,233.14 242.5,236C 240.253,237.995 239.253,240.495 239.5,243.5C 236.016,246.588 233.35,250.421 231.5,255C 230.167,255.667 228.833,255.667 227.5,255C 231.404,249.118 235.238,243.285 239,237.5C 239.333,235.833 239.667,234.167 240,232.5C 244.61,229.113 249.443,226.113 254.5,223.5C 254.866,224.695 255.699,225.361 257,225.5C 259.877,224.597 262.71,223.597 265.5,222.5C 266.416,222.543 267.083,222.876 267.5,223.5 Z"/></g>
<g><path style="opacity:1" fill="#320908" d="M 308.5,244.5 C 310.816,245.422 312.483,247.089 313.5,249.5C 311.184,248.578 309.517,246.911 308.5,244.5 Z"/></g>
<g><path style="opacity:1" fill="#4b0202" d="M 207.5,239.5 C 207.5,241.167 207.5,242.833 207.5,244.5C 206.874,247.495 205.541,250.161 203.5,252.5C 201.306,259.221 198.306,265.554 194.5,271.5C 192.167,271.5 189.833,271.5 187.5,271.5C 187.859,268.763 189.193,266.763 191.5,265.5C 193.193,264.525 194.693,263.192 196,261.5C 198.699,255.73 201.199,249.897 203.5,244C 204.704,242.301 206.038,240.801 207.5,239.5 Z"/></g>
<g><path style="opacity:1" fill="#0c0304" d="M 298.5,239.5 C 299.167,239.5 299.833,239.5 300.5,239.5C 303.131,241.112 305.798,242.779 308.5,244.5C 309.517,246.911 311.184,248.578 313.5,249.5C 316.647,251.546 318.98,254.212 320.5,257.5C 319.489,259.402 319.322,261.402 320,263.5C 320.308,262.692 320.808,262.025 321.5,261.5C 322.694,264.32 322.694,267.153 321.5,270C 321.833,270.5 322.167,271 322.5,271.5C 323.167,270.833 323.833,270.167 324.5,269.5C 325.645,270.776 325.645,272.109 324.5,273.5C 325.849,274.909 327.182,276.243 328.5,277.5C 329.6,278.605 330.267,279.938 330.5,281.5C 327.5,281.5 324.5,281.5 321.5,281.5C 321.158,280.662 320.492,280.328 319.5,280.5C 319.789,274.755 319.289,269.088 318,263.5C 317.667,264.5 317.333,265.5 317,266.5C 315,263.167 313,259.833 311,256.5C 310.329,255.748 309.496,255.414 308.5,255.5C 298.185,244.391 285.852,241.058 271.5,245.5C 263.943,247.057 257.61,250.724 252.5,256.5C 251.674,257.451 251.508,258.451 252,259.5C 253.039,258.29 254.206,257.29 255.5,256.5C 255.66,258.199 255.494,259.866 255,261.5C 248.239,265.325 245.073,271.658 245.5,280.5C 269.833,280.5 294.167,280.5 318.5,280.5C 295.006,281.498 271.339,281.831 247.5,281.5C 241.833,281.5 236.167,281.5 230.5,281.5C 229.167,280.5 229.167,279.5 230.5,278.5C 231.496,278.586 232.329,278.252 233,277.5C 235.784,272.485 237.784,267.152 239,261.5C 241.785,259.108 243.285,256.441 243.5,253.5C 247.038,249.386 251.038,245.719 255.5,242.5C 258.206,242.312 260.539,241.312 262.5,239.5C 274.568,235.528 286.568,235.528 298.5,239.5 Z"/></g>
<g><path style="opacity:1" fill="#2f2020" d="M 308.5,255.5 C 297.741,246.922 285.408,243.589 271.5,245.5C 285.852,241.058 298.185,244.391 308.5,255.5 Z"/></g>
<g><path style="opacity:1" fill="#020101" d="M 271.5,245.5 C 285.408,243.589 297.741,246.922 308.5,255.5C 310.977,259.778 313.477,264.112 316,268.5C 317.283,272.414 318.116,276.414 318.5,280.5C 294.167,280.5 269.833,280.5 245.5,280.5C 245.073,271.658 248.239,265.325 255,261.5C 255.494,259.866 255.66,258.199 255.5,256.5C 256.29,255.206 257.29,254.039 258.5,253C 262.928,250.459 267.262,247.959 271.5,245.5 Z"/></g>
<g><path style="opacity:1" fill="#271617" d="M 271.5,245.5 C 267.262,247.959 262.928,250.459 258.5,253C 257.29,254.039 256.29,255.206 255.5,256.5C 254.206,257.29 253.039,258.29 252,259.5C 251.508,258.451 251.674,257.451 252.5,256.5C 257.61,250.724 263.943,247.057 271.5,245.5 Z"/></g>
<g><path style="opacity:1" fill="#961f12" d="M 322.5,254.5 C 323.167,254.833 323.833,255.167 324.5,255.5C 327.761,262.615 330.427,269.948 332.5,277.5C 330.565,275.62 328.899,273.62 327.5,271.5C 325.938,268.018 324.605,264.352 323.5,260.5C 322.85,258.565 322.517,256.565 322.5,254.5 Z"/></g>
<g><path style="opacity:1" fill="#2d0203" d="M 207.5,236.5 C 207.5,237.5 207.5,238.5 207.5,239.5C 206.038,240.801 204.704,242.301 203.5,244C 201.199,249.897 198.699,255.73 196,261.5C 194.693,263.192 193.193,264.525 191.5,265.5C 193.45,261.388 194.95,257.055 196,252.5C 199.095,248.411 201.761,244.077 204,239.5C 204.759,237.937 205.926,236.937 207.5,236.5 Z"/></g>
<g><path style="opacity:1" fill="#3e0304" d="M 367.5,255.5 C 368.5,255.5 369.5,255.5 370.5,255.5C 370.674,257.861 371.007,260.194 371.5,262.5C 373.591,265.771 375.924,268.937 378.5,272C 383.287,271.957 387.621,273.123 391.5,275.5C 388.833,275.5 386.167,275.5 383.5,275.5C 380.43,274.468 377.43,273.135 374.5,271.5C 374.649,270.448 374.483,269.448 374,268.5C 370.083,264.881 367.916,260.548 367.5,255.5 Z"/></g>
<g><path style="opacity:1" fill="#130001" d="M 361.5,239.5 C 364.346,239.809 365.846,241.475 366,244.5C 367.333,246.5 369,248.167 371,249.5C 371.301,252.98 372.135,256.313 373.5,259.5C 378.029,262.678 381.362,266.678 383.5,271.5C 382.022,271.762 380.689,271.429 379.5,270.5C 377.146,267.479 374.479,264.812 371.5,262.5C 371.007,260.194 370.674,257.861 370.5,255.5C 369.5,255.5 368.5,255.5 367.5,255.5C 367.66,253.801 367.494,252.134 367,250.5C 364.071,247.31 362.238,243.643 361.5,239.5 Z"/></g>
<g><path style="opacity:1" fill="#211615" d="M 308.5,255.5 C 309.496,255.414 310.329,255.748 311,256.5C 313,259.833 315,263.167 317,266.5C 317.333,265.5 317.667,264.5 318,263.5C 319.289,269.088 319.789,274.755 319.5,280.5C 319.167,280.5 318.833,280.5 318.5,280.5C 318.116,276.414 317.283,272.414 316,268.5C 313.477,264.112 310.977,259.778 308.5,255.5 Z"/></g>
<g><path style="opacity:1" fill="#ba150a" d="M 231.5,225.5 C 229.637,228.551 228.47,231.885 228,235.5C 226.701,235.966 225.201,235.966 223.5,235.5C 223.201,237.604 223.534,239.604 224.5,241.5C 226.518,239.65 228.351,237.65 230,235.5C 230.333,235.833 230.667,236.167 231,236.5C 232.333,235.167 233.667,233.833 235,232.5C 235.163,234.387 234.329,235.887 232.5,237C 233.167,237.333 233.833,237.667 234.5,238C 229.695,242.663 226.195,247.497 224,252.5C 223.322,254.902 223.822,257.068 225.5,259C 223.394,263.706 221.727,268.539 220.5,273.5C 215.588,274.026 210.922,273.359 206.5,271.5C 206.167,270.833 205.833,270.167 205.5,269.5C 207.253,265.754 207.92,261.754 207.5,257.5C 207.328,256.508 207.662,255.842 208.5,255.5C 209.376,255.631 210.043,255.298 210.5,254.5C 211.194,251.912 212.36,249.579 214,247.5C 215.079,244.937 215.579,242.271 215.5,239.5C 216.5,239.5 217.5,239.5 218.5,239.5C 218.351,238.448 218.517,237.448 219,236.5C 222.273,232.981 225.773,229.647 229.5,226.5C 230.167,226.167 230.833,225.833 231.5,225.5 Z"/></g>
<g><path style="opacity:1" fill="#220703" d="M 320.5,257.5 C 321.272,258.694 322.272,259.694 323.5,260.5C 324.605,264.352 325.938,268.018 327.5,271.5C 327.833,273.5 328.167,275.5 328.5,277.5C 327.182,276.243 325.849,274.909 324.5,273.5C 325.645,272.109 325.645,270.776 324.5,269.5C 323.833,270.167 323.167,270.833 322.5,271.5C 322.167,271 321.833,270.5 321.5,270C 322.694,267.153 322.694,264.32 321.5,261.5C 320.808,262.025 320.308,262.692 320,263.5C 319.322,261.402 319.489,259.402 320.5,257.5 Z"/></g>
<g><path style="opacity:1" fill="#5e0204" d="M 203.5,252.5 C 203.66,254.199 203.494,255.866 203,257.5C 200.861,263.112 198.194,268.446 195,273.5C 193.698,274.085 192.531,274.751 191.5,275.5C 191.5,275.833 191.5,276.167 191.5,276.5C 187.466,276.505 183.466,276.838 179.5,277.5C 178.167,277.5 176.833,277.5 175.5,277.5C 180.183,277.382 183.849,275.382 186.5,271.5C 186.833,271.5 187.167,271.5 187.5,271.5C 189.833,271.5 192.167,271.5 194.5,271.5C 198.306,265.554 201.306,259.221 203.5,252.5 Z"/></g>
<g><path style="opacity:1" fill="#350506" d="M 243.5,253.5 C 243.285,256.441 241.785,259.108 239,261.5C 237.784,267.152 235.784,272.485 233,277.5C 232.329,278.252 231.496,278.586 230.5,278.5C 231.234,277.292 231.567,275.959 231.5,274.5C 232.452,268.97 234.452,263.97 237.5,259.5C 239.017,259.489 240.184,258.823 241,257.5C 241.2,255.68 242.034,254.347 243.5,253.5 Z"/></g>
<g><path style="opacity:1" fill="#2a0304" d="M 371.5,262.5 C 374.479,264.812 377.146,267.479 379.5,270.5C 380.689,271.429 382.022,271.762 383.5,271.5C 385.199,271.34 386.866,271.506 388.5,272C 392.295,273.356 395.962,274.856 399.5,276.5C 396.615,276.806 393.948,276.473 391.5,275.5C 387.621,273.123 383.287,271.957 378.5,272C 375.924,268.937 373.591,265.771 371.5,262.5 Z"/></g>
<g><path style="opacity:1" fill="#3e0203" d="M 186.5,271.5 C 183.849,275.382 180.183,277.382 175.5,277.5C 170.167,277.5 164.833,277.5 159.5,277.5C 164.396,275.554 169.729,274.887 175.5,275.5C 179.137,274.225 182.804,272.892 186.5,271.5 Z"/></g>
<g><path style="opacity:1" fill="#c85a13" d="M 323.5,251.5 C 329.162,258.494 332.995,266.494 335,275.5C 336.711,274.419 338.211,274.752 339.5,276.5C 339.557,277.609 339.89,278.609 340.5,279.5C 339.167,279.167 337.833,278.833 336.5,278.5C 335.542,278.047 334.708,277.381 334,276.5C 332.333,271.833 330.667,267.167 329,262.5C 327.974,259.761 326.474,257.428 324.5,255.5C 324.167,254.167 323.833,252.833 323.5,251.5 Z"/></g>
<g><path style="opacity:1" fill="#a30f04" d="M 360.5,266.5 C 362.484,267.983 364.317,269.649 366,271.5C 367.44,272.148 368.94,272.481 370.5,272.5C 374.613,274.386 378.946,275.386 383.5,275.5C 383.5,276.167 383.5,276.833 383.5,277.5C 378.629,277.808 373.963,276.975 369.5,275C 365.083,273.568 362.083,270.734 360.5,266.5 Z"/></g>
<g><path style="opacity:1" fill="#690306" d="M 383.5,275.5 C 386.167,275.5 388.833,275.5 391.5,275.5C 393.948,276.473 396.615,276.806 399.5,276.5C 405.026,276.179 410.36,276.512 415.5,277.5C 415.5,277.833 415.5,278.167 415.5,278.5C 404.833,278.167 394.167,277.833 383.5,277.5C 383.5,276.833 383.5,276.167 383.5,275.5 Z"/></g>
<g><path style="opacity:1" fill="#f18552" d="M 324.5,255.5 C 326.474,257.428 327.974,259.761 329,262.5C 330.667,267.167 332.333,271.833 334,276.5C 334.708,277.381 335.542,278.047 336.5,278.5C 336.672,279.492 336.338,280.158 335.5,280.5C 334.306,279.728 333.306,278.728 332.5,277.5C 330.427,269.948 327.761,262.615 324.5,255.5 Z"/></g>
<g><path style="opacity:1" fill="#ef8f37" d="M 342.5,272.5 C 343.026,274.23 344.026,275.564 345.5,276.5C 346.842,277.793 348.509,278.626 350.5,279C 347.183,279.498 343.85,279.665 340.5,279.5C 339.89,278.609 339.557,277.609 339.5,276.5C 343.133,277.323 343.466,276.156 340.5,273C 341.094,272.536 341.761,272.369 342.5,272.5 Z"/></g>
<g><path style="opacity:1" fill="#5f0508" d="M 159.5,277.5 C 164.833,277.5 170.167,277.5 175.5,277.5C 174.048,278.302 172.382,278.802 170.5,279C 157.797,279.152 145.131,279.818 132.5,281C 141.472,282.04 150.472,282.54 159.5,282.5C 159.5,282.833 159.5,283.167 159.5,283.5C 148.654,283.828 137.987,283.494 127.5,282.5C 127.5,281.5 127.5,280.5 127.5,279.5C 138.338,279.131 149.005,278.465 159.5,277.5 Z"/></g>
<g><path style="opacity:1" fill="#92080b" d="M 191.5,276.5 C 190.282,277.161 188.949,277.828 187.5,278.5C 188.689,279.429 190.022,279.762 191.5,279.5C 191.5,280.5 191.5,281.5 191.5,282.5C 180.833,282.5 170.167,282.5 159.5,282.5C 157.031,281.683 154.365,281.183 151.5,281C 162.185,280.557 172.852,280.557 183.5,281C 181.456,280.502 180.122,279.335 179.5,277.5C 183.466,276.838 187.466,276.505 191.5,276.5 Z"/></g>
<g><path style="opacity:1" fill="#a90e07" d="M 207.5,257.5 C 207.92,261.754 207.253,265.754 205.5,269.5C 205.833,270.167 206.167,270.833 206.5,271.5C 210.922,273.359 215.588,274.026 220.5,273.5C 223.109,273.17 224.776,271.67 225.5,269C 227.587,268.208 229.421,267.041 231,265.5C 231.716,263.121 232.883,261.121 234.5,259.5C 232.619,264.476 230.952,269.476 229.5,274.5C 226.031,273.887 224.031,275.221 223.5,278.5C 220.482,278.335 217.482,278.502 214.5,279C 213.833,279.667 213.167,280.333 212.5,281C 214.473,281.495 216.473,281.662 218.5,281.5C 209.682,282.493 200.682,282.827 191.5,282.5C 191.5,281.5 191.5,280.5 191.5,279.5C 190.022,279.762 188.689,279.429 187.5,278.5C 188.949,277.828 190.282,277.161 191.5,276.5C 191.5,276.167 191.5,275.833 191.5,275.5C 192.873,275.657 194.207,275.49 195.5,275C 196.924,272.782 198.924,271.282 201.5,270.5C 202.759,265.741 204.759,261.408 207.5,257.5 Z"/></g>
<g><path style="opacity:1" fill="#821014" d="M 238.5,255.5 C 238.567,256.959 238.234,258.292 237.5,259.5C 234.452,263.97 232.452,268.97 231.5,274.5C 229.896,275.287 229.229,276.62 229.5,278.5C 226.998,278.749 224.498,279.083 222,279.5C 220.319,279.608 219.152,280.275 218.5,281.5C 216.473,281.662 214.473,281.495 212.5,281C 213.167,280.333 213.833,279.667 214.5,279C 217.482,278.502 220.482,278.335 223.5,278.5C 224.031,275.221 226.031,273.887 229.5,274.5C 230.952,269.476 232.619,264.476 234.5,259.5C 235.667,257.959 237,256.625 238.5,255.5 Z"/></g>
<g><path style="opacity:1" fill="#d34e1d" d="M 351.5,275.5 C 353.562,276.776 355.896,277.61 358.5,278C 356.5,278.333 354.5,278.667 352.5,279C 355.004,279.698 357.337,280.531 359.5,281.5C 351.484,280.496 343.484,280.496 335.5,281.5C 335.5,281.167 335.5,280.833 335.5,280.5C 336.338,280.158 336.672,279.492 336.5,278.5C 337.833,278.833 339.167,279.167 340.5,279.5C 343.85,279.665 347.183,279.498 350.5,279C 348.509,278.626 346.842,277.793 345.5,276.5C 347.265,275.539 349.265,275.205 351.5,275.5 Z"/></g>
<g><path style="opacity:1" fill="#360405" d="M 159.5,277.5 C 149.005,278.465 138.338,279.131 127.5,279.5C 127.5,280.5 127.5,281.5 127.5,282.5C 116.833,282.5 106.167,282.5 95.5,282.5C 95.5,281.5 95.5,280.5 95.5,279.5C 116.828,278.68 138.161,278.013 159.5,277.5 Z"/></g>
<g><path style="opacity:1" fill="#82050d" d="M 175.5,277.5 C 176.833,277.5 178.167,277.5 179.5,277.5C 180.122,279.335 181.456,280.502 183.5,281C 172.852,280.557 162.185,280.557 151.5,281C 154.365,281.183 157.031,281.683 159.5,282.5C 150.472,282.54 141.472,282.04 132.5,281C 145.131,279.818 157.797,279.152 170.5,279C 172.382,278.802 174.048,278.302 175.5,277.5 Z"/></g>
<g><path style="opacity:1" fill="#450204" d="M 231.5,274.5 C 231.567,275.959 231.234,277.292 230.5,278.5C 229.167,279.5 229.167,280.5 230.5,281.5C 229.5,281.5 228.5,281.5 227.5,281.5C 224.5,281.5 221.5,281.5 218.5,281.5C 219.152,280.275 220.319,279.608 222,279.5C 224.498,279.083 226.998,278.749 229.5,278.5C 229.229,276.62 229.896,275.287 231.5,274.5 Z"/></g>
<g><path style="opacity:1" fill="#631710" d="M 327.5,271.5 C 328.899,273.62 330.565,275.62 332.5,277.5C 333.306,278.728 334.306,279.728 335.5,280.5C 335.5,280.833 335.5,281.167 335.5,281.5C 334.833,281.5 334.167,281.5 333.5,281.5C 332.5,281.5 331.5,281.5 330.5,281.5C 330.267,279.938 329.6,278.605 328.5,277.5C 328.167,275.5 327.833,273.5 327.5,271.5 Z"/></g>
<g><path style="opacity:1" fill="#f46d21" d="M 399.5,282.5 C 394.167,282.5 388.833,282.5 383.5,282.5C 366.658,282.83 349.992,282.497 333.5,281.5C 334.167,281.5 334.833,281.5 335.5,281.5C 343.484,280.496 351.484,280.496 359.5,281.5C 366.992,279.967 375.326,278.967 384.5,278.5C 391.229,278.841 397.896,279.675 404.5,281C 402.618,281.198 400.952,281.698 399.5,282.5 Z"/></g>
<g><path style="opacity:1" fill="#8b0e0d" d="M 415.5,278.5 C 423.862,278.335 432.195,278.668 440.5,279.5C 440.611,280.117 440.944,280.617 441.5,281C 438.173,281.61 434.839,282.11 431.5,282.5C 431.5,281.5 431.5,280.5 431.5,279.5C 425.974,279.821 420.64,279.488 415.5,278.5 Z"/></g>
<g><path style="opacity:1" fill="#710a0e" d="M 440.5,279.5 C 446.537,279.171 452.537,279.504 458.5,280.5C 457.398,281.176 456.398,281.842 455.5,282.5C 452.615,282.194 449.948,282.527 447.5,283.5C 436.833,283.5 426.167,283.5 415.5,283.5C 404.833,283.5 394.167,283.5 383.5,283.5C 383.5,283.167 383.5,282.833 383.5,282.5C 388.833,282.5 394.167,282.5 399.5,282.5C 410.167,282.5 420.833,282.5 431.5,282.5C 434.839,282.11 438.173,281.61 441.5,281C 440.944,280.617 440.611,280.117 440.5,279.5 Z"/></g>
<g><path style="opacity:1" fill="#4d050c" d="M 415.5,278.5 C 415.5,278.167 415.5,277.833 415.5,277.5C 423.5,277.5 431.5,277.5 439.5,277.5C 447.5,278.167 455.5,278.833 463.5,279.5C 467.312,280.324 471.312,280.824 475.5,281C 468.908,282.329 462.241,282.829 455.5,282.5C 456.398,281.842 457.398,281.176 458.5,280.5C 452.537,279.504 446.537,279.171 440.5,279.5C 432.195,278.668 423.862,278.335 415.5,278.5 Z"/></g>
<g><path style="opacity:1" fill="#3e0804" d="M 318.5,280.5 C 318.833,280.5 319.167,280.5 319.5,280.5C 320.492,280.328 321.158,280.662 321.5,281.5C 320.508,281.328 319.842,281.662 319.5,282.5C 295.328,282.831 271.328,282.498 247.5,281.5C 271.339,281.831 295.006,281.498 318.5,280.5 Z"/></g>
<g><path style="opacity:1" fill="#851115" d="M 218.5,281.5 C 221.5,281.5 224.5,281.5 227.5,281.5C 234.065,281.851 240.399,282.851 246.5,284.5C 217.532,283.524 188.532,283.191 159.5,283.5C 159.5,283.167 159.5,282.833 159.5,282.5C 170.167,282.5 180.833,282.5 191.5,282.5C 200.682,282.827 209.682,282.493 218.5,281.5 Z"/></g>
<g><path style="opacity:1" fill="#ba4716" d="M 321.5,281.5 C 324.5,281.5 327.5,281.5 330.5,281.5C 331.5,281.5 332.5,281.5 333.5,281.5C 349.992,282.497 366.658,282.83 383.5,282.5C 383.5,282.833 383.5,283.167 383.5,283.5C 361.993,283.831 340.66,283.497 319.5,282.5C 319.842,281.662 320.508,281.328 321.5,281.5 Z"/></g>
<g><path style="opacity:1" fill="#340405" d="M 463.5,279.5 C 468.833,279.5 474.167,279.5 479.5,279.5C 479.5,280.833 479.5,282.167 479.5,283.5C 468.833,283.5 458.167,283.5 447.5,283.5C 449.948,282.527 452.615,282.194 455.5,282.5C 462.241,282.829 468.908,282.329 475.5,281C 471.312,280.824 467.312,280.324 463.5,279.5 Z"/></g>
<g><path style="opacity:1" fill="#701d1b" d="M 227.5,281.5 C 228.5,281.5 229.5,281.5 230.5,281.5C 236.167,281.5 241.833,281.5 247.5,281.5C 271.328,282.498 295.328,282.831 319.5,282.5C 340.66,283.497 361.993,283.831 383.5,283.5C 394.167,283.5 404.833,283.5 415.5,283.5C 415.5,283.833 415.5,284.167 415.5,284.5C 404.833,284.5 394.167,284.5 383.5,284.5C 370.833,284.5 358.167,284.5 345.5,284.5C 337.833,284.5 330.167,284.5 322.5,284.5C 321.5,284.5 320.5,284.5 319.5,284.5C 295.167,284.5 270.833,284.5 246.5,284.5C 240.399,282.851 234.065,281.851 227.5,281.5 Z"/></g>
<g><path style="opacity:1" fill="#160101" d="M 439.5,277.5 C 458.265,277.235 476.931,278.235 495.5,280.5C 495.67,281.822 495.337,282.989 494.5,284C 490.84,284.547 487.173,285.047 483.5,285.5C 460.849,284.542 438.183,284.209 415.5,284.5C 415.5,284.167 415.5,283.833 415.5,283.5C 426.167,283.5 436.833,283.5 447.5,283.5C 458.167,283.5 468.833,283.5 479.5,283.5C 479.5,282.167 479.5,280.833 479.5,279.5C 474.167,279.5 468.833,279.5 463.5,279.5C 455.5,278.833 447.5,278.167 439.5,277.5 Z"/></g>
<g><path style="opacity:1" fill="#3e0104" d="M 159.5,283.5 C 188.532,283.191 217.532,283.524 246.5,284.5C 270.833,284.5 295.167,284.5 319.5,284.5C 293.005,285.498 266.339,285.831 239.5,285.5C 238.791,284.596 237.791,284.263 236.5,284.5C 228.833,284.5 221.167,284.5 213.5,284.5C 195.326,284.83 177.326,284.497 159.5,283.5 Z"/></g>
<g><path style="opacity:1" fill="#400404" d="M 322.5,284.5 C 330.167,284.5 337.833,284.5 345.5,284.5C 347.302,285.458 349.302,286.125 351.5,286.5C 351.5,286.833 351.5,287.167 351.5,287.5C 350.167,287.5 348.833,287.5 347.5,287.5C 346.833,287.5 346.167,287.5 345.5,287.5C 340.025,286.511 334.358,286.178 328.5,286.5C 327.5,286.5 326.5,286.5 325.5,286.5C 324.5,285.833 323.5,285.167 322.5,284.5 Z"/></g>
<g><path style="opacity:1" fill="#280003" d="M 345.5,284.5 C 358.167,284.5 370.833,284.5 383.5,284.5C 372.833,285.167 362.167,285.833 351.5,286.5C 349.302,286.125 347.302,285.458 345.5,284.5 Z"/></g>
<g><path style="opacity:1" fill="#020102" d="M 236.5,284.5 C 237.791,284.263 238.791,284.596 239.5,285.5C 265.328,286.498 291.328,286.831 317.5,286.5C 317.135,289.625 316.302,292.625 315,295.5C 314.138,293.913 313.471,292.246 313,290.5C 312.28,292.112 312.446,293.612 313.5,295C 310.622,298.115 308.289,301.615 306.5,305.5C 301.553,306.696 298.22,309.196 296.5,313C 294.965,313.496 293.465,313.33 292,312.5C 285.67,316.652 278.837,317.486 271.5,315C 267.332,312.75 263.332,310.25 259.5,307.5C 258.549,308.326 257.549,308.492 256.5,308C 250.565,302.386 246.732,295.553 245,287.5C 245.36,295.888 248.694,302.888 255,308.5C 255.495,310.473 255.662,312.473 255.5,314.5C 254.127,314.657 252.793,314.49 251.5,314C 249.854,312.179 247.854,311.013 245.5,310.5C 244.19,307.527 242.19,305.193 239.5,303.5C 239.5,302.833 239.5,302.167 239.5,301.5C 238.66,297.015 237.66,292.681 236.5,288.5C 236.672,287.508 236.338,286.842 235.5,286.5C 235.833,285.833 236.167,285.167 236.5,284.5 Z"/></g>
<g><path style="opacity:1" fill="#bb1f0b" d="M 227.5,287.5 C 228.833,287.5 230.167,287.5 231.5,287.5C 231.833,287.5 232.167,287.5 232.5,287.5C 232.779,300.061 237.446,310.728 246.5,319.5C 242.388,317.781 239.055,315.114 236.5,311.5C 234.555,306.118 232.388,300.785 230,295.5C 229.667,297.167 229.333,298.833 229,300.5C 227.925,296.23 227.425,291.897 227.5,287.5 Z"/></g>
<g><path style="opacity:1" fill="#e26713" d="M 335.5,287.5 C 335.43,290.924 334.264,293.924 332,296.5C 331.667,296.167 331.333,295.833 331,295.5C 330.295,298.476 329.129,301.142 327.5,303.5C 328.816,298.233 329.816,292.9 330.5,287.5C 332.167,287.5 333.833,287.5 335.5,287.5 Z"/></g>
<g><path style="opacity:1" fill="#320304" d="M 213.5,284.5 C 221.167,284.5 228.833,284.5 236.5,284.5C 236.167,285.167 235.833,285.833 235.5,286.5C 229.37,285.234 223.37,285.234 217.5,286.5C 216.041,286.433 214.708,286.766 213.5,287.5C 211.554,288.035 210.554,289.368 210.5,291.5C 209.542,291.953 208.708,292.619 208,293.5C 207.5,300.158 207.334,306.825 207.5,313.5C 206.207,312.158 205.374,310.491 205,308.5C 204.333,303.833 204.333,299.167 205,294.5C 206.914,291.879 208.747,289.212 210.5,286.5C 212.179,286.715 213.179,286.048 213.5,284.5 Z"/></g>
<g><path style="opacity:1" fill="#710301" d="M 213.5,287.5 C 212.411,294.117 212.244,300.783 213,307.5C 215.299,313.032 217.132,318.699 218.5,324.5C 215.101,322.053 212.935,318.72 212,314.5C 209.758,306.911 209.258,299.245 210.5,291.5C 210.554,289.368 211.554,288.035 213.5,287.5 Z"/></g>
<g><path style="opacity:1" fill="#a10d05" d="M 347.5,287.5 C 348.833,287.5 350.167,287.5 351.5,287.5C 351.5,289.167 351.5,290.833 351.5,292.5C 351.5,298.833 351.5,305.167 351.5,311.5C 350.5,312.167 349.5,312.833 348.5,313.5C 348.571,310.689 349.238,308.022 350.5,305.5C 349.79,301.196 349.29,296.863 349,292.5C 348.617,291.944 348.117,291.611 347.5,291.5C 347.5,290.167 347.5,288.833 347.5,287.5 Z"/></g>
<g><path style="opacity:1" fill="#ca240c" d="M 226.5,287.5 C 226.833,287.5 227.167,287.5 227.5,287.5C 227.425,291.897 227.925,296.23 229,300.5C 229.333,298.833 229.667,297.167 230,295.5C 232.388,300.785 234.555,306.118 236.5,311.5C 236.657,312.873 236.49,314.207 236,315.5C 235.346,314.304 234.846,314.304 234.5,315.5C 236.205,318.199 238.205,320.699 240.5,323C 239.424,324.726 239.257,326.559 240,328.5C 245.133,332.814 250.633,336.481 256.5,339.5C 254.265,340.248 254.598,341.081 257.5,342C 254.764,342.422 252.098,342.422 249.5,342C 251,343.115 252.667,343.948 254.5,344.5C 255.429,345.689 255.762,347.022 255.5,348.5C 253.784,348.371 252.117,348.038 250.5,347.5C 245.851,344.526 241.184,341.526 236.5,338.5C 236.631,337.761 236.464,337.094 236,336.5C 233.154,335.654 231.32,333.82 230.5,331C 230.905,330.055 231.572,329.388 232.5,329C 226.067,322.623 221.9,315.123 220,306.5C 221.748,308.135 222.915,310.135 223.5,312.5C 224.242,310.65 225.242,309.984 226.5,310.5C 223.782,304.78 222.949,298.78 224,292.5C 224.333,292.833 224.667,293.167 225,293.5C 225.813,291.564 226.313,289.564 226.5,287.5 Z"/></g>
<g><path style="opacity:1" fill="#2e0708" d="M 236.5,288.5 C 237.66,292.681 238.66,297.015 239.5,301.5C 237.933,300.319 237.099,298.653 237,296.5C 236.503,293.854 236.336,291.187 236.5,288.5 Z"/></g>
<g><path style="opacity:1" fill="#490303" d="M 217.5,286.5 C 223.37,285.234 229.37,285.234 235.5,286.5C 236.338,286.842 236.672,287.508 236.5,288.5C 236.336,291.187 236.503,293.854 237,296.5C 237.099,298.653 237.933,300.319 239.5,301.5C 239.5,302.167 239.5,302.833 239.5,303.5C 238.25,303.423 237.417,302.756 237,301.5C 236.074,296.399 234.574,291.732 232.5,287.5C 232.167,287.5 231.833,287.5 231.5,287.5C 227.03,286.514 222.363,286.181 217.5,286.5 Z"/></g>
<g><path style="opacity:1" fill="#620204" d="M 351.5,287.5 C 353.179,287.285 354.179,287.952 354.5,289.5C 357.426,295.78 358.259,302.447 357,309.5C 355.391,312.407 353.558,315.073 351.5,317.5C 351.5,315.5 351.5,313.5 351.5,311.5C 352.315,310.571 353.148,309.571 354,308.5C 354.453,305.16 354.953,301.826 355.5,298.5C 355.62,295.378 354.287,293.378 351.5,292.5C 351.5,290.833 351.5,289.167 351.5,287.5 Z"/></g>
<g><path style="opacity:1" fill="#7f0203" d="M 351.5,292.5 C 354.287,293.378 355.62,295.378 355.5,298.5C 354.953,301.826 354.453,305.16 354,308.5C 353.148,309.571 352.315,310.571 351.5,311.5C 351.5,305.167 351.5,298.833 351.5,292.5 Z"/></g>
<g><path style="opacity:1" fill="#931a17" d="M 232.5,287.5 C 234.574,291.732 236.074,296.399 237,301.5C 237.417,302.756 238.25,303.423 239.5,303.5C 239.343,304.873 239.51,306.207 240,307.5C 241.912,309.657 243.579,311.991 245,314.5C 248.4,317.414 251.9,320.08 255.5,322.5C 256.694,323.272 257.694,324.272 258.5,325.5C 257.5,325.5 256.5,325.5 255.5,325.5C 252.398,323.773 249.398,321.773 246.5,319.5C 237.446,310.728 232.779,300.061 232.5,287.5 Z"/></g>
<g><path style="opacity:1" fill="#772224" d="M 325.5,286.5 C 326.5,286.5 327.5,286.5 328.5,286.5C 328.5,286.833 328.5,287.167 328.5,287.5C 327.161,294.322 324.661,300.988 321,307.5C 319.887,308.305 318.721,308.972 317.5,309.5C 320.213,304.952 322.713,300.286 325,295.5C 325.498,292.518 325.665,289.518 325.5,286.5 Z"/></g>
<g><path style="opacity:1" fill="#e07547" d="M 328.5,286.5 C 334.358,286.178 340.025,286.511 345.5,287.5C 343.5,287.5 341.5,287.5 339.5,287.5C 338.5,287.5 337.5,287.5 336.5,287.5C 336.167,287.5 335.833,287.5 335.5,287.5C 333.833,287.5 332.167,287.5 330.5,287.5C 329.816,292.9 328.816,298.233 327.5,303.5C 326.662,303.842 326.328,304.508 326.5,305.5C 324.167,308.167 321.833,310.833 319.5,313.5C 321.811,309.66 323.977,305.66 326,301.5C 327.975,297.037 328.808,292.371 328.5,287.5C 328.5,287.167 328.5,286.833 328.5,286.5 Z"/></g>
<g><path style="opacity:1" fill="#c64d0e" d="M 326.5,305.5 C 325.102,309.288 322.935,312.621 320,315.5C 319.536,314.906 319.369,314.239 319.5,313.5C 321.833,310.833 324.167,308.167 326.5,305.5 Z"/></g>
<g><path style="opacity:1" fill="#f26910" d="M 336.5,287.5 C 337.5,287.5 338.5,287.5 339.5,287.5C 341.228,304.23 335.561,318.063 322.5,329C 318.322,332.591 313.656,335.424 308.5,337.5C 305.77,337.473 303.27,338.14 301,339.5C 297.896,339.149 298.063,338.649 301.5,338C 300.906,337.536 300.239,337.369 299.5,337.5C 301.476,335.989 303.809,335.156 306.5,335C 307.381,334.292 308.047,333.458 308.5,332.5C 320.623,327.042 328.957,318.042 333.5,305.5C 334.927,303.852 335.76,301.852 336,299.5C 336.499,295.514 336.666,291.514 336.5,287.5 Z"/></g>
<g><path style="opacity:1" fill="#170001" d="M 210.5,286.5 C 208.747,289.212 206.914,291.879 205,294.5C 204.333,299.167 204.333,303.833 205,308.5C 205.374,310.491 206.207,312.158 207.5,313.5C 207.5,313.833 207.5,314.167 207.5,314.5C 207.5,315.5 207.5,316.5 207.5,317.5C 206.206,316.71 205.039,315.71 204,314.5C 201.922,305.398 202.089,296.398 204.5,287.5C 206.5,287.167 208.5,286.833 210.5,286.5 Z"/></g>
<g><path style="opacity:1" fill="#1a0001" d="M 358.5,293.5 C 359.117,293.611 359.617,293.944 360,294.5C 361.437,303.343 360.27,311.676 356.5,319.5C 356.857,315.737 357.69,312.07 359,308.5C 359.726,303.448 359.559,298.448 358.5,293.5 Z"/></g>
<g><path style="opacity:1" fill="#110606" d="M 319.5,284.5 C 320.5,284.5 321.5,284.5 322.5,284.5C 323.5,285.167 324.5,285.833 325.5,286.5C 325.665,289.518 325.498,292.518 325,295.5C 322.713,300.286 320.213,304.952 317.5,309.5C 313.798,313.203 309.798,316.537 305.5,319.5C 305.167,320.167 304.833,320.833 304.5,321.5C 303.833,321.5 303.5,321.833 303.5,322.5C 299.577,322.809 296.243,324.142 293.5,326.5C 286.167,326.5 278.833,326.5 271.5,326.5C 261.572,323.244 252.906,317.911 245.5,310.5C 247.854,311.013 249.854,312.179 251.5,314C 252.793,314.49 254.127,314.657 255.5,314.5C 255.662,312.473 255.495,310.473 255,308.5C 248.694,302.888 245.36,295.888 245,287.5C 246.732,295.553 250.565,302.386 256.5,308C 257.549,308.492 258.549,308.326 259.5,307.5C 263.332,310.25 267.332,312.75 271.5,315C 278.837,317.486 285.67,316.652 292,312.5C 293.465,313.33 294.965,313.496 296.5,313C 298.22,309.196 301.553,306.696 306.5,305.5C 308.289,301.615 310.622,298.115 313.5,295C 312.446,293.612 312.28,292.112 313,290.5C 313.471,292.246 314.138,293.913 315,295.5C 316.302,292.625 317.135,289.625 317.5,286.5C 291.328,286.831 265.328,286.498 239.5,285.5C 266.339,285.831 293.005,285.498 319.5,284.5 Z"/></g>
<g><path style="opacity:1" fill="#39211c" d="M 310.5,303.5 C 311.043,303.56 311.376,303.893 311.5,304.5C 310.167,306.167 308.833,307.833 307.5,309.5C 306.409,310.888 305.076,311.388 303.5,311C 306.039,308.63 308.372,306.13 310.5,303.5 Z"/></g>
<g><path style="opacity:1" fill="#b71c05" d="M 347.5,291.5 C 348.117,291.611 348.617,291.944 349,292.5C 349.29,296.863 349.79,301.196 350.5,305.5C 349.238,308.022 348.571,310.689 348.5,313.5C 345.357,319.349 341.69,325.015 337.5,330.5C 333.682,333.818 330.015,337.318 326.5,341C 323.153,343.524 319.486,345.357 315.5,346.5C 316.527,344.806 317.861,343.473 319.5,342.5C 321.637,341.058 323.97,339.891 326.5,339C 331.722,333.118 336.888,327.285 342,321.5C 343.743,317.016 345.743,312.683 348,308.5C 348.74,302.782 348.573,297.115 347.5,291.5 Z"/></g>
<g><path style="opacity:1" fill="#500203" d="M 210.5,291.5 C 209.258,299.245 209.758,306.911 212,314.5C 212.935,318.72 215.101,322.053 218.5,324.5C 218.483,327.991 219.983,330.658 223,332.5C 223.483,333.448 223.649,334.448 223.5,335.5C 221.857,335.52 220.524,334.853 219.5,333.5C 215.849,326.869 211.849,320.536 207.5,314.5C 207.5,314.167 207.5,313.833 207.5,313.5C 207.334,306.825 207.5,300.158 208,293.5C 208.708,292.619 209.542,291.953 210.5,291.5 Z"/></g>
<g><path style="opacity:1" fill="#b4110a" d="M 226.5,287.5 C 226.313,289.564 225.813,291.564 225,293.5C 224.667,293.167 224.333,292.833 224,292.5C 222.949,298.78 223.782,304.78 226.5,310.5C 225.242,309.984 224.242,310.65 223.5,312.5C 222.915,310.135 221.748,308.135 220,306.5C 221.9,315.123 226.067,322.623 232.5,329C 231.572,329.388 230.905,330.055 230.5,331C 231.32,333.82 233.154,335.654 236,336.5C 236.464,337.094 236.631,337.761 236.5,338.5C 231.868,335.202 227.534,331.536 223.5,327.5C 223.5,326.833 223.5,326.167 223.5,325.5C 217.942,317.033 214.609,307.7 213.5,297.5C 213.073,288.276 217.407,284.943 226.5,287.5 Z"/></g>
<g><path style="opacity:1" fill="#86150b" d="M 328.5,287.5 C 328.808,292.371 327.975,297.037 326,301.5C 323.977,305.66 321.811,309.66 319.5,313.5C 317.5,314.833 315.833,316.5 314.5,318.5C 311.243,321.294 307.577,323.294 303.5,324.5C 303.5,323.833 303.5,323.167 303.5,322.5C 303.5,321.833 303.833,321.5 304.5,321.5C 306.593,320.955 308.593,320.122 310.5,319C 312.986,315.825 315.319,312.658 317.5,309.5C 318.721,308.972 319.887,308.305 321,307.5C 324.661,300.988 327.161,294.322 328.5,287.5 Z"/></g>
<g><path style="opacity:1" fill="#8f0a07" d="M 217.5,286.5 C 222.363,286.181 227.03,286.514 231.5,287.5C 230.167,287.5 228.833,287.5 227.5,287.5C 227.167,287.5 226.833,287.5 226.5,287.5C 217.407,284.943 213.073,288.276 213.5,297.5C 214.609,307.7 217.942,317.033 223.5,325.5C 221.784,325.371 220.117,325.038 218.5,324.5C 217.132,318.699 215.299,313.032 213,307.5C 212.244,300.783 212.411,294.117 213.5,287.5C 214.708,286.766 216.041,286.433 217.5,286.5 Z"/></g>
<g><path style="opacity:1" fill="#840205" d="M 351.5,311.5 C 351.5,313.5 351.5,315.5 351.5,317.5C 351.5,318.167 351.5,318.833 351.5,319.5C 350.5,319.5 349.5,319.5 348.5,319.5C 348.371,321.216 348.038,322.883 347.5,324.5C 345.457,327.543 342.79,329.876 339.5,331.5C 340.931,329.811 341.764,327.811 342,325.5C 346.514,322.802 348.68,318.802 348.5,313.5C 349.5,312.833 350.5,312.167 351.5,311.5 Z"/></g>
<g><path style="opacity:1" fill="#410909" d="M 239.5,303.5 C 242.19,305.193 244.19,307.527 245.5,310.5C 252.906,317.911 261.572,323.244 271.5,326.5C 266.189,325.184 260.856,323.851 255.5,322.5C 251.9,320.08 248.4,317.414 245,314.5C 243.579,311.991 241.912,309.657 240,307.5C 239.51,306.207 239.343,304.873 239.5,303.5 Z"/></g>
<g><path style="opacity:1" fill="#2a1819" d="M 298.5,314.5 C 297.025,316.41 295.025,317.576 292.5,318C 286.899,319.217 281.232,319.717 275.5,319.5C 273.233,318.577 270.9,317.744 268.5,317C 278.674,318.23 288.674,317.397 298.5,314.5 Z"/></g>
<g><path style="opacity:1" fill="#6a191e" d="M 317.5,309.5 C 315.319,312.658 312.986,315.825 310.5,319C 308.593,320.122 306.593,320.955 304.5,321.5C 304.833,320.833 305.167,320.167 305.5,319.5C 309.798,316.537 313.798,313.203 317.5,309.5 Z"/></g>
<g><path style="opacity:1" fill="#f18120" d="M 335.5,287.5 C 335.833,287.5 336.167,287.5 336.5,287.5C 336.666,291.514 336.499,295.514 336,299.5C 335.76,301.852 334.927,303.852 333.5,305.5C 332.844,304.722 332.011,304.056 331,303.5C 326.901,309.363 323.567,315.696 321,322.5C 320.085,321.672 319.419,320.672 319,319.5C 317.333,321.833 315.667,324.167 314,326.5C 313.329,325.748 312.496,325.414 311.5,325.5C 313.883,324.115 315.55,322.115 316.5,319.5C 316.158,318.662 315.492,318.328 314.5,318.5C 315.833,316.5 317.5,314.833 319.5,313.5C 319.369,314.239 319.536,314.906 320,315.5C 322.935,312.621 325.102,309.288 326.5,305.5C 326.328,304.508 326.662,303.842 327.5,303.5C 329.129,301.142 330.295,298.476 331,295.5C 331.333,295.833 331.667,296.167 332,296.5C 334.264,293.924 335.43,290.924 335.5,287.5 Z"/></g>
<g><path style="opacity:1" fill="#050204" d="M 305.5,319.5 C 297.574,322.19 289.407,324.19 281,325.5C 277.757,325.693 274.757,325.027 272,323.5C 269.035,324.115 266.535,323.115 264.5,320.5C 267.676,319.003 270.342,319.67 272.5,322.5C 274.213,322.121 275.213,321.121 275.5,319.5C 281.232,319.717 286.899,319.217 292.5,318C 295.025,317.576 297.025,316.41 298.5,314.5C 302.921,312.894 305.254,314.561 305.5,319.5 Z"/></g>
<g><path style="opacity:1" fill="#5f1b16" d="M 303.5,322.5 C 303.5,323.167 303.5,323.833 303.5,324.5C 300.097,324.851 296.763,325.518 293.5,326.5C 296.243,324.142 299.577,322.809 303.5,322.5 Z"/></g>
<g><path style="opacity:1" fill="#150001" d="M 207.5,319.5 C 208.764,321.27 210.264,322.937 212,324.5C 214.3,328.813 216.633,333.147 219,337.5C 226.622,344.703 234.789,351.203 243.5,357C 247.393,359.017 251.393,360.517 255.5,361.5C 259.001,362.8 262.667,363.966 266.5,365C 285.288,367.888 302.955,365.055 319.5,356.5C 323.746,357.239 326.413,355.573 327.5,351.5C 329.552,349.141 332.218,347.807 335.5,347.5C 333.462,349.543 331.795,351.876 330.5,354.5C 311.782,365.777 291.448,369.943 269.5,367C 263.634,365.213 257.634,364.213 251.5,364C 247.055,361.443 242.389,359.443 237.5,358C 234.833,356.667 232.833,354.667 231.5,352C 230.5,351.667 229.5,351.333 228.5,351C 225.647,345.78 221.314,342.613 215.5,341.5C 216.118,335.928 213.785,332.261 208.5,330.5C 207.511,326.893 207.177,323.226 207.5,319.5 Z"/></g>
<g><path style="opacity:1" fill="#590505" d="M 255.5,322.5 C 260.856,323.851 266.189,325.184 271.5,326.5C 271.5,326.833 271.5,327.167 271.5,327.5C 269.5,327.5 267.5,327.5 265.5,327.5C 263.079,327.122 260.746,326.455 258.5,325.5C 257.694,324.272 256.694,323.272 255.5,322.5 Z"/></g>
<g><path style="opacity:1" fill="#3c0404" d="M 354.5,289.5 C 356,290.625 357.333,291.959 358.5,293.5C 359.559,298.448 359.726,303.448 359,308.5C 357.69,312.07 356.857,315.737 356.5,319.5C 353.216,326.089 349.216,332.423 344.5,338.5C 341.081,341.252 338.081,344.252 335.5,347.5C 332.218,347.807 329.552,349.141 327.5,351.5C 326.5,351.5 325.5,351.5 324.5,351.5C 327.07,347.385 330.737,345.052 335.5,344.5C 335.5,343.5 335.5,342.5 335.5,341.5C 339.833,341.833 341.833,339.833 341.5,335.5C 344.044,334.532 346.211,332.865 348,330.5C 348.633,326.591 349.799,322.925 351.5,319.5C 351.5,318.833 351.5,318.167 351.5,317.5C 353.558,315.073 355.391,312.407 357,309.5C 358.259,302.447 357.426,295.78 354.5,289.5 Z"/></g>
<g><path style="opacity:1" fill="#dc3e0f" d="M 236.5,311.5 C 239.055,315.114 242.388,317.781 246.5,319.5C 249.398,321.773 252.398,323.773 255.5,325.5C 260.703,329.64 266.703,331.64 273.5,331.5C 280.862,331.635 288.196,331.302 295.5,330.5C 292.913,331.749 290.246,332.749 287.5,333.5C 278.828,333.155 270.162,332.655 261.5,332C 258.716,331.108 256.05,329.942 253.5,328.5C 253.167,329.167 252.833,329.833 252.5,330.5C 250.76,328.789 248.76,327.956 246.5,328C 253.589,333.646 261.589,337.479 270.5,339.5C 271.386,340.325 271.719,341.325 271.5,342.5C 276.813,343.098 282.146,343.431 287.5,343.5C 284.024,344.643 280.358,344.81 276.5,344C 269.674,343.126 263.007,341.626 256.5,339.5C 250.633,336.481 245.133,332.814 240,328.5C 239.257,326.559 239.424,324.726 240.5,323C 238.205,320.699 236.205,318.199 234.5,315.5C 234.846,314.304 235.346,314.304 236,315.5C 236.49,314.207 236.657,312.873 236.5,311.5 Z"/></g>
<g><path style="opacity:1" fill="#740f06" d="M 303.5,324.5 C 300.912,326.625 297.912,327.958 294.5,328.5C 294.167,327.833 293.833,327.167 293.5,326.5C 296.763,325.518 300.097,324.851 303.5,324.5 Z"/></g>
<g><path style="opacity:1" fill="#da572f" d="M 314.5,318.5 C 315.492,318.328 316.158,318.662 316.5,319.5C 310.653,325.342 303.653,329.008 295.5,330.5C 288.196,331.302 280.862,331.635 273.5,331.5C 273.5,331.167 273.5,330.833 273.5,330.5C 278.179,330.666 282.845,330.499 287.5,330C 289.058,329.79 290.391,329.29 291.5,328.5C 292.5,328.5 293.5,328.5 294.5,328.5C 297.912,327.958 300.912,326.625 303.5,324.5C 307.577,323.294 311.243,321.294 314.5,318.5 Z"/></g>
<g><path style="opacity:1" fill="#520b10" d="M 271.5,326.5 C 278.833,326.5 286.167,326.5 293.5,326.5C 293.833,327.167 294.167,327.833 294.5,328.5C 293.5,328.5 292.5,328.5 291.5,328.5C 284.646,328.824 277.979,328.491 271.5,327.5C 271.5,327.167 271.5,326.833 271.5,326.5 Z"/></g>
<g><path style="opacity:1" fill="#f68814" d="M 333.5,305.5 C 328.957,318.042 320.623,327.042 308.5,332.5C 305.925,333.279 303.592,333.113 301.5,332C 303.893,330.137 306.56,328.804 309.5,328C 310.381,327.292 311.047,326.458 311.5,325.5C 312.496,325.414 313.329,325.748 314,326.5C 315.667,324.167 317.333,321.833 319,319.5C 319.419,320.672 320.085,321.672 321,322.5C 323.567,315.696 326.901,309.363 331,303.5C 332.011,304.056 332.844,304.722 333.5,305.5 Z"/></g>
<g><path style="opacity:1" fill="#e64c0d" d="M 339.5,287.5 C 341.5,287.5 343.5,287.5 345.5,287.5C 346.167,287.5 346.833,287.5 347.5,287.5C 347.5,288.833 347.5,290.167 347.5,291.5C 348.573,297.115 348.74,302.782 348,308.5C 345.743,312.683 343.743,317.016 342,321.5C 336.888,327.285 331.722,333.118 326.5,339C 323.97,339.891 321.637,341.058 319.5,342.5C 317.516,342.383 315.85,343.05 314.5,344.5C 314.167,343.833 313.833,343.167 313.5,342.5C 305.56,346.401 297.227,348.568 288.5,349C 289.833,348.667 291.167,348.333 292.5,348C 291.833,347.667 291.167,347.333 290.5,347C 292.235,346.349 293.902,346.515 295.5,347.5C 296.795,346.902 298.128,346.402 299.5,346C 299.167,345.667 298.833,345.333 298.5,345C 302.5,344.333 302.5,343.667 298.5,343C 300.852,342.76 302.852,341.927 304.5,340.5C 305.833,339.5 307.167,338.5 308.5,337.5C 313.656,335.424 318.322,332.591 322.5,329C 335.561,318.063 341.228,304.23 339.5,287.5 Z"/></g>
<g><path style="opacity:1" fill="#c23524" d="M 255.5,325.5 C 256.5,325.5 257.5,325.5 258.5,325.5C 260.746,326.455 263.079,327.122 265.5,327.5C 268.087,328.749 270.754,329.749 273.5,330.5C 273.5,330.833 273.5,331.167 273.5,331.5C 266.703,331.64 260.703,329.64 255.5,325.5 Z"/></g>
<g><path style="opacity:1" fill="#560202" d="M 351.5,319.5 C 349.799,322.925 348.633,326.591 348,330.5C 346.211,332.865 344.044,334.532 341.5,335.5C 341.833,339.833 339.833,341.833 335.5,341.5C 338.733,337.085 342.233,332.751 346,328.5C 346.791,327.255 347.291,325.922 347.5,324.5C 348.038,322.883 348.371,321.216 348.5,319.5C 349.5,319.5 350.5,319.5 351.5,319.5 Z"/></g>
<g><path style="opacity:1" fill="#f77511" d="M 316.5,319.5 C 315.55,322.115 313.883,324.115 311.5,325.5C 311.047,326.458 310.381,327.292 309.5,328C 306.56,328.804 303.893,330.137 301.5,332C 303.592,333.113 305.925,333.279 308.5,332.5C 308.047,333.458 307.381,334.292 306.5,335C 303.809,335.156 301.476,335.989 299.5,337.5C 295.515,338.427 291.515,338.927 287.5,339C 288.167,338.667 288.833,338.333 289.5,338C 287.893,336.951 287.227,335.451 287.5,333.5C 290.246,332.749 292.913,331.749 295.5,330.5C 303.653,329.008 310.653,325.342 316.5,319.5 Z"/></g>
<g><path style="opacity:1" fill="#750206" d="M 347.5,324.5 C 347.291,325.922 346.791,327.255 346,328.5C 342.233,332.751 338.733,337.085 335.5,341.5C 335.5,342.5 335.5,343.5 335.5,344.5C 330.737,345.052 327.07,347.385 324.5,351.5C 322.833,351.5 321.167,351.5 319.5,351.5C 319.5,350.167 319.5,348.833 319.5,347.5C 321.604,347.799 323.604,347.466 325.5,346.5C 330.16,341.506 334.827,336.506 339.5,331.5C 342.79,329.876 345.457,327.543 347.5,324.5 Z"/></g>
<g><path style="opacity:1" fill="#390304" d="M 207.5,314.5 C 211.849,320.536 215.849,326.869 219.5,333.5C 220.524,334.853 221.857,335.52 223.5,335.5C 223.281,336.675 223.614,337.675 224.5,338.5C 228.944,341.441 232.944,344.941 236.5,349C 238.9,349.744 241.233,350.577 243.5,351.5C 243.628,353.09 244.295,354.423 245.5,355.5C 248.878,356.591 252.211,357.591 255.5,358.5C 255.5,359.5 255.5,360.5 255.5,361.5C 251.393,360.517 247.393,359.017 243.5,357C 234.789,351.203 226.622,344.703 219,337.5C 216.633,333.147 214.3,328.813 212,324.5C 210.264,322.937 208.764,321.27 207.5,319.5C 207.5,318.833 207.5,318.167 207.5,317.5C 207.5,316.5 207.5,315.5 207.5,314.5 Z"/></g>
<g><path style="opacity:1" fill="#670204" d="M 218.5,324.5 C 220.117,325.038 221.784,325.371 223.5,325.5C 223.5,326.167 223.5,326.833 223.5,327.5C 223.238,328.978 223.571,330.311 224.5,331.5C 227.493,335.325 230.993,338.659 235,341.5C 236.559,343.217 237.392,345.217 237.5,347.5C 242.277,348.22 246.61,350.053 250.5,353C 253.789,353.882 257.123,354.548 260.5,355C 261.056,355.383 261.389,355.883 261.5,356.5C 278.519,362.266 295.519,361.766 312.5,355C 314.324,354.34 315.657,353.173 316.5,351.5C 317.5,351.5 318.5,351.5 319.5,351.5C 318.043,353.785 316.043,355.618 313.5,357C 308.156,359.726 302.489,361.559 296.5,362.5C 277.284,364.6 259.618,360.933 243.5,351.5C 241.233,350.577 238.9,349.744 236.5,349C 232.944,344.941 228.944,341.441 224.5,338.5C 223.614,337.675 223.281,336.675 223.5,335.5C 223.649,334.448 223.483,333.448 223,332.5C 219.983,330.658 218.483,327.991 218.5,324.5 Z"/></g>
<g><path style="opacity:1" fill="#910402" d="M 348.5,313.5 C 348.68,318.802 346.514,322.802 342,325.5C 341.764,327.811 340.931,329.811 339.5,331.5C 334.827,336.506 330.16,341.506 325.5,346.5C 323.604,347.466 321.604,347.799 319.5,347.5C 319.5,348.833 319.5,350.167 319.5,351.5C 318.5,351.5 317.5,351.5 316.5,351.5C 298.83,358.84 280.497,360.507 261.5,356.5C 261.389,355.883 261.056,355.383 260.5,355C 257.123,354.548 253.789,353.882 250.5,353C 246.61,350.053 242.277,348.22 237.5,347.5C 237.392,345.217 236.559,343.217 235,341.5C 230.993,338.659 227.493,335.325 224.5,331.5C 223.571,330.311 223.238,328.978 223.5,327.5C 227.534,331.536 231.868,335.202 236.5,338.5C 236.971,339.901 237.638,341.234 238.5,342.5C 241.531,343.366 244.197,344.866 246.5,347C 247.793,347.49 249.127,347.657 250.5,347.5C 259.511,353.824 269.677,356.491 281,355.5C 291.786,356.065 301.952,353.898 311.5,349C 312.381,348.292 313.047,347.458 313.5,346.5C 314.167,346.5 314.833,346.5 315.5,346.5C 319.486,345.357 323.153,343.524 326.5,341C 330.015,337.318 333.682,333.818 337.5,330.5C 341.69,325.015 345.357,319.349 348.5,313.5 Z"/></g>
<g><path style="opacity:1" fill="#b31904" d="M 313.5,346.5 C 313.047,347.458 312.381,348.292 311.5,349C 301.952,353.898 291.786,356.065 281,355.5C 269.677,356.491 259.511,353.824 250.5,347.5C 252.117,348.038 253.784,348.371 255.5,348.5C 266.593,353.348 278.26,355.181 290.5,354C 292.744,353.95 294.411,353.117 295.5,351.5C 301.751,350.77 307.751,349.104 313.5,346.5 Z"/></g>
<g><path style="opacity:1" fill="#de4108" d="M 304.5,340.5 C 302.852,341.927 300.852,342.76 298.5,343C 302.5,343.667 302.5,344.333 298.5,345C 298.833,345.333 299.167,345.667 299.5,346C 298.128,346.402 296.795,346.902 295.5,347.5C 293.902,346.515 292.235,346.349 290.5,347C 291.167,347.333 291.833,347.667 292.5,348C 291.167,348.333 289.833,348.667 288.5,349C 297.227,348.568 305.56,346.401 313.5,342.5C 313.833,343.167 314.167,343.833 314.5,344.5C 315.85,343.05 317.516,342.383 319.5,342.5C 317.861,343.473 316.527,344.806 315.5,346.5C 314.833,346.5 314.167,346.5 313.5,346.5C 307.751,349.104 301.751,350.77 295.5,351.5C 286.161,351.666 276.827,351.5 267.5,351C 269.5,350.667 271.5,350.333 273.5,350C 272.167,349.667 270.833,349.333 269.5,349C 275.803,348.058 282.137,347.391 288.5,347C 285.5,346.667 282.5,346.333 279.5,346C 285.851,345.944 291.851,344.777 297.5,342.5C 299.599,341.388 301.933,340.721 304.5,340.5 Z"/></g>
<g><path style="opacity:1" fill="#d5330c" d="M 256.5,339.5 C 263.007,341.626 269.674,343.126 276.5,344C 280.358,344.81 284.024,344.643 287.5,343.5C 290.86,343.384 294.193,343.051 297.5,342.5C 291.851,344.777 285.851,345.944 279.5,346C 282.5,346.333 285.5,346.667 288.5,347C 282.137,347.391 275.803,348.058 269.5,349C 270.833,349.333 272.167,349.667 273.5,350C 271.5,350.333 269.5,350.667 267.5,351C 276.827,351.5 286.161,351.666 295.5,351.5C 294.411,353.117 292.744,353.95 290.5,354C 278.26,355.181 266.593,353.348 255.5,348.5C 255.762,347.022 255.429,345.689 254.5,344.5C 252.667,343.948 251,343.115 249.5,342C 252.098,342.422 254.764,342.422 257.5,342C 254.598,341.081 254.265,340.248 256.5,339.5 Z"/></g>
<g><path style="opacity:1" fill="#a70d05" d="M 236.5,338.5 C 241.184,341.526 245.851,344.526 250.5,347.5C 249.127,347.657 247.793,347.49 246.5,347C 244.197,344.866 241.531,343.366 238.5,342.5C 237.638,341.234 236.971,339.901 236.5,338.5 Z"/></g>
<g><path style="opacity:1" fill="#f15c0f" d="M 287.5,333.5 C 287.227,335.451 287.893,336.951 289.5,338C 288.833,338.333 288.167,338.667 287.5,339C 291.515,338.927 295.515,338.427 299.5,337.5C 300.239,337.369 300.906,337.536 301.5,338C 298.063,338.649 297.896,339.149 301,339.5C 303.27,338.14 305.77,337.473 308.5,337.5C 307.167,338.5 305.833,339.5 304.5,340.5C 301.933,340.721 299.599,341.388 297.5,342.5C 294.193,343.051 290.86,343.384 287.5,343.5C 282.146,343.431 276.813,343.098 271.5,342.5C 271.719,341.325 271.386,340.325 270.5,339.5C 261.589,337.479 253.589,333.646 246.5,328C 248.76,327.956 250.76,328.789 252.5,330.5C 252.833,329.833 253.167,329.167 253.5,328.5C 256.05,329.942 258.716,331.108 261.5,332C 270.162,332.655 278.828,333.155 287.5,333.5 Z"/></g>
<g><path style="opacity:1" fill="#6f0302" d="M 265.5,327.5 C 267.5,327.5 269.5,327.5 271.5,327.5C 277.979,328.491 284.646,328.824 291.5,328.5C 290.391,329.29 289.058,329.79 287.5,330C 282.845,330.499 278.179,330.666 273.5,330.5C 270.754,329.749 268.087,328.749 265.5,327.5 Z"/></g>
<g><path style="opacity:1" fill="#2a0302" d="M 324.5,351.5 C 325.5,351.5 326.5,351.5 327.5,351.5C 326.413,355.573 323.746,357.239 319.5,356.5C 321.308,355 322.974,353.333 324.5,351.5 Z"/></g>
<g><path style="opacity:1" fill="#790105" d="M 316.5,351.5 C 315.657,353.173 314.324,354.34 312.5,355C 295.519,361.766 278.519,362.266 261.5,356.5C 280.497,360.507 298.83,358.84 316.5,351.5 Z"/></g>
<g><path style="opacity:1" fill="#4f0202" d="M 243.5,351.5 C 259.618,360.933 277.284,364.6 296.5,362.5C 282.931,363.956 269.264,363.623 255.5,361.5C 255.5,360.5 255.5,359.5 255.5,358.5C 252.211,357.591 248.878,356.591 245.5,355.5C 244.295,354.423 243.628,353.09 243.5,351.5 Z"/></g>
<g><path style="opacity:1" fill="#3c0303" d="M 319.5,351.5 C 321.167,351.5 322.833,351.5 324.5,351.5C 322.974,353.333 321.308,355 319.5,356.5C 302.955,365.055 285.288,367.888 266.5,365C 262.667,363.966 259.001,362.8 255.5,361.5C 269.264,363.623 282.931,363.956 296.5,362.5C 302.489,361.559 308.156,359.726 313.5,357C 316.043,355.618 318.043,353.785 319.5,351.5 Z"/></g>
</svg>
